# AST/ASF file generated using VICON BodyLanguage
# -----------------------------------------------
:version 1.10
:name VICON
:units
  mass 1.0
  length 0.45
  angle deg
:documentation
   .ast/.asf automatically generated from VICON data using
   VICON BodyBuilder and BodyLanguage model FoxedUp or BRILLIANT.MOD
:root
   order TX TY TZ RX RY RZ
   axis XYZ
   position 0 0 0  
   orientation 0 0 0 
:bonedata
  begin
     id 1 
     name lhipjoint
     direction 0.623529 -0.717805 0.309788 
     length 2.23224 
     axis 0 0 0  XYZ
  end
  begin
     id 2 
     name lfemur
     direction 0.34202 -0.939693 0  
     length 7.11402  
     axis 0 0 20  XYZ
    dof rx ry rz
    limits (-160.0 20.0)
           (-70.0 70.0)
           (-60.0 70.0)
  end
  begin
     id 3 
     name ltibia
     direction 0.34202 -0.939693 0   
     length 6.78496   
     axis 0 0 20   XYZ
    dof rx
    limits (-10.0 170.0)
  end
  begin
     id 4 
     name lfoot
     direction 0.125078 -0.343648 0.930732   
     length 1.84054   
     axis -90 7.62852e-016 20   XYZ
    dof rx rz
    limits (-45.0 90.0)
           (-70.0 20.0)
  end
  begin
     id 5 
     name ltoes
     direction 1.53565e-011 -4.21893e-011 1   
     length 0.916474   
     axis -90 7.62852e-016 20   XYZ
    dof rx
    limits (-90.0 20.0)
  end
  begin
     id 6 
     name rhipjoint
     direction -0.564688 -0.757748 0.327026   
     length 2.11457  
     axis 0 0 0  XYZ 
  end
  begin
     id 7 
     name rfemur
     direction -0.34202 -0.939693 0   
     length 7.14609   
     axis 0 0 -20   XYZ
    dof rx ry rz
    limits (-160.0 20.0)
           (-70.0 70.0)
           (-70.0 60.0)
  end
  begin
     id 8 
     name rtibia
     direction -0.34202 -0.939693 0   
     length 6.78101   
     axis 0 0 -20   XYZ
    dof rx
    limits (-10.0 170.0)
 end
 begin
     id 9 
     name rfoot
     direction -0.0992671 -0.272734 0.956955   
     length 1.96168  
     axis -90 -7.62852e-016 -20   XYZ
    dof rx rz
    limits (-45.0 90.0)
           (-20.0 70.0)
  end
  begin
     id 10 
     name rtoes
     direction -1.5356e-011 -4.21891e-011 1   
     length 0.982933   
     axis -90 -7.62852e-016 -20   XYZ
    dof rx
    limits (-90.0 20.0)
  end
  begin
     id 11 
     name lowerback
     direction -0.00596953 0.998668 0.0512524   
     length 1.87557   
     axis 0 0 0   XYZ
    dof rx ry rz
    limits (-20.0 45.0)
           (-30.0 30.0)
           (-30.0 30.0)
  end
  begin
     id 12 
     name upperback
     direction 0.00584879 0.999652 0.0257308   
     length 1.87883   
     axis 0 0 0   XYZ
    dof rx ry rz
    limits (-20.0 45.0)
           (-30.0 30.0)
           (-30.0 30.0)
  end
  begin
     id 13 
     name thorax
     direction 0.010104 0.999947 0.00178881   
     length 1.87779   
     axis 0 0 0   XYZ
    dof rx ry rz
    limits (-20.0 45.0)
           (-30.0 30.0)
           (-30.0 30.0)
  end
  begin
     id 14 
     name lowerneck
     direction 0.0120771 0.995934 -0.0892773   
     length 1.40897   
     axis 0 0 0   XYZ
    dof rx ry rz
    limits (-20.0 45.0)
           (-30.0 30.0)
           (-30.0 30.0)
  end
  begin
     id 15 
     name upperneck
     direction -0.030568 0.999465 -0.0116366   
     length 1.38661   
     axis 0 0 0   XYZ
    dof rx ry rz
    limits (-20.0 45.0)
           (-30.0 30.0)
           (-30.0 30.0)
  end
  begin
     id 16
     name head
     direction -0.0170715 0.999854 -0.00104426  
     length 1.47052  
     axis 0 0 0   XYZ
    dof rx ry rz
    limits (-20.0 45.0)
           (-30.0 30.0)
           (-30.0 30.0)
  end
  begin
     id 17 
     name lclavicle
     direction 0.977763 0.206143 0.038532  
     length 3.02424  
     axis 0 0 0   XYZ
    dof ry rz
    limits (-20.0 10.0)
           (0.0 20.0)
  end
  begin
     id 18 
     name lhumerus
     direction 1 -4.48965e-011 -2.62654e-027   
     length 4.68382   
     axis 180 -30 -90   XYZ
    dof rx ry rz
    limits (-60.0 90.0)
           (-90.0 90.0)
           (-90.0 90.0)
  end
  begin
     id 19
     name lradius
     direction 1 -4.48973e-011 -1.54954e-027   
     length 2.98124   
     axis 180 -30 -90   XYZ
    dof rx
    limits (-10.0 170.0)
  end
  begin
     id 20
     name lwrist
     direction 1 -4.48959e-011 7.20928e-028   
     length 1.49062   
     axis -5.52449e-016 90 90   XYZ
    dof ry
    limits (-180.0 0.0)
 end
  begin
     id 21 
     name lhand
     direction 1 -4.48971e-011 1.44186e-027   
     length 0.707595   
     axis -9.20027e-016 90 90   XYZ
    dof rx rz
    limits (-90.0 90.0)
           (-45.0 45.0)
  end
  begin
     id 22 
     name lfingers
     direction 1 -4.48985e-011 2.88371e-027   
     length 0.570481   
     axis -1.84005e-015 90 90   XYZ
    dof rx
    limits (0.0 90.0)
  end
  begin
     id 23
     name lthumb
     direction 0.707107 -6.34929e-011 0.707107   
     length 0.819101   
     axis -90 45 2.85299e-015   XYZ
    dof rx rz
    limits (-45.0 45.0)
           (-45.0 45.0)
  end
  begin
     id 24 
     name rclavicle
     direction -0.958661 0.284411 -0.00895327   
     length 3.11921  
     axis 0 0 0   XYZ 
    dof ry rz
    limits (-10.0 20.0)
           (-20.0 0.0)
  end
  begin
     id 25 
     name rhumerus
     direction -1 -4.48963e-011 -4.22193e-027  
     length 4.75876   
     axis 180 30 90   XYZ
    dof rx ry rz
    limits (-90.0 60.0)
           (-90.0 90.0)
           (-90.0 90.0)
  end
  begin
     id 26 
     name rradius
     direction -1 -4.48968e-011 -1.07616e-027   
     length 2.93293   
     axis 180 30 90   XYZ
    dof rx
    limits (-10.0 170.0)
  end
  begin
     id 27 
     name rwrist
     direction -1 -4.48965e-011 7.20928e-028   
     length 1.46647   
     axis -5.52449e-016 -90 -90   XYZ
    dof ry
    limits (-180.0 0.0)
  end
  begin
     id 28
     name rhand
     direction -1 -4.48971e-011 1.44186e-027   
     length 0.831748   
     axis -9.20027e-016 -90 -90   XYZ
    dof rx rz
    limits (-90.0 90.0)
           (-45.0 45.0)
  end
  begin
     id 29
     name rfingers
     direction -1 -4.48961e-011 2.88371e-027   
     length 0.670577   
     axis -1.84005e-015 -90 -90   XYZ
    dof rx
    limits (0.0 90.0)
  end
  begin
     id 30
     name rthumb
     direction -0.707107 -6.34929e-011 0.707107   
     length 0.962818   
     axis -90 -45 -2.85299e-015   XYZ
    dof rx rz
    limits (-45.0 45.0)
           (-45.0 45.0)
  end
:hierarchy
  begin
    root lhipjoint rhipjoint lowerback
    lhipjoint lfemur
    lfemur ltibia
    ltibia lfoot
    lfoot ltoes
    rhipjoint rfemur
    rfemur rtibia
    rtibia rfoot
    rfoot rtoes
    lowerback upperback
    upperback thorax
    thorax lowerneck lclavicle rclavicle
    lowerneck upperneck
    upperneck head
    lclavicle lhumerus
    lhumerus lradius
    lradius lwrist
    lwrist lhand lthumb
    lhand lfingers
    rclavicle rhumerus
    rhumerus rradius
    rradius rwrist
    rwrist rhand rthumb
    rhand rfingers
  end

#!OML:ASF E:\id_vita\Project 1\Capture day 1\Session 1\Female.ASF
:FULLY-SPECIFIED
:DEGREES
220
root 23.0663 12.9853 1.83346 -148.611 -77.2822 194.243
lowerback 20.3204 3.49087 0.0908397
upperback -2.61244 4.76308 0.705319
thorax -14.4977 2.18441 -0.788726
lowerneck 0.192787 4.56479 -3.71677
upperneck -41.2462 1.53575 -6.22386
head -14.2743 0.822997 -1.79525
rclavicle 4.77083e-014 4.77083e-015
rhumerus 27.8745 -10.6862 -30.3833
rradius 104.032
rwrist 4.09563
rhand -51.783 33.9919
rfingers 7.12502
rthumb -24.2995 5.51204
lclavicle 4.77083e-014 4.77083e-015
lhumerus 4.15604 11.1672 28.1134
lradius 99.4838
lwrist 0.409442
lhand -46.845 41.711
lfingers 7.12502
lthumb -19.5583 70.7473
rfemur -101.264 8.00881 19.1105
rtibia 81.1191
rfoot -16.5929 -18.0177
rtoes -14.4945
lfemur -100.461 -1.77979 -11.7829
ltibia 87.4475
lfoot -25.7866 19.4104
ltoes -2.45432
221
root 23.2305 12.9942 1.83983 -147.599 -78.0382 193.884
lowerback 20.9383 3.14142 0.170022
upperback -2.33669 4.32426 0.855198
thorax -14.5433 1.97896 -0.546206
lowerneck 0.11469 4.84628 -3.7768
upperneck -42.1137 1.77793 -6.37427
head -14.6919 0.912391 -1.89616
rclavicle -4.05521e-014 8.74653e-015
rhumerus 29.5082 -10.7976 -28.8497
rradius 104.127
rwrist 3.79666
rhand -51.7975 33.6259
rfingers 7.12502
rthumb -24.3133 5.14791
lclavicle -4.05521e-014 8.74653e-015
lhumerus 6.33918 11.783 27.2282
lradius 99.0842
lwrist 0.163838
lhand -46.8016 42.2448
lfingers 7.12502
lthumb -19.5165 71.2852
rfemur -102.286 7.43181 19.0067
rtibia 80.4512
rfoot -16.4846 -17.7393
rtoes -14.6924
lfemur -101.771 -2.23852 -10.9178
ltibia 86.545
lfoot -24.6881 18.9654
ltoes -2.18867
222
root 23.3908 13.0017 1.86112 -146.096 -78.8945 193.192
lowerback 21.265 2.7661 0.529443
upperback -2.01635 3.91113 0.922575
thorax -14.3346 1.76388 -0.542994
lowerneck 0.0507507 5.03945 -3.72923
upperneck -43.0446 1.8641 -6.58671
head -15.159 0.916675 -2.0304
rclavicle 1.74931e-014 -1.98785e-014
rhumerus 31.0465 -11.3063 -27.5329
rradius 103.945
rwrist 4.08439
rhand -51.9001 33.4838
rfingers 7.12502
rthumb -24.4117 5.01902
lclavicle 1.74931e-014 -1.98785e-014
lhumerus 8.8082 12.6256 26.5648
lradius 98.5079
lwrist 0.100566
lhand -47.0867 43.2416
lfingers 7.12502
lthumb -19.7906 72.2541
rfemur -103.427 6.59279 18.9734
rtibia 79.54
rfoot -16.4678 -17.2164
rtoes -14.8298
lfemur -103.156 -2.94781 -9.85957
ltibia 85.437
lfoot -23.5097 18.5896
ltoes -1.33266
223
root 23.5461 13.0177 1.86936 -144.024 -79.725 192.212
lowerback 21.005 2.44156 0.713035
upperback -1.74216 3.51975 0.989069
thorax -13.8529 1.58115 -0.424326
lowerneck 0.31254 5.28212 -3.90531
upperneck -44.2416 2.05836 -6.55945
head -15.875 0.974286 -2.05853
rclavicle -4.77083e-014 -1.11319e-014
rhumerus 32.1367 -11.8755 -26.4974
rradius 103.539
rwrist 4.78344
rhand -52.3263 33.9851
rfingers 7.12502
rthumb -24.8203 5.57593
lclavicle -4.77083e-014 -1.11319e-014
lhumerus 11.1074 13.549 26.0526
lradius 98.0161
lwrist 0.136223
lhand -46.8601 44.1398
lfingers 7.12502
lthumb -19.5728 73.1746
rfemur -104.915 5.80562 18.8154
rtibia 78.8505
rfoot -16.9624 -15.9185
rtoes -10.9952
lfemur -104.749 -3.48861 -8.95724
ltibia 84.259
lfoot -22.4924 18.114
ltoes -1.10311
224
root 23.6235 13.1153 1.87858 -145.678 -79.751 192.525
lowerback 23.1083 2.40533 0.793541
upperback -0.861084 3.46138 1.02801
thorax -14.0306 1.5232 -0.470021
lowerneck -1.52835 5.07764 -1.90539
upperneck -43.2374 1.43362 -8.29934
head -14.8341 0.531545 -2.99132
rclavicle 1.82882e-014 4.09496e-014
rhumerus 32.7518 -12.3674 -25.5316
rradius 103.183
rwrist 5.28083
rhand -53.0624 35.3086
rfingers 7.12502
rthumb -25.5255 6.99855
lclavicle 1.82882e-014 4.09496e-014
lhumerus 13.1555 14.3847 25.7056
lradius 97.5998
lwrist 0.306425
lhand -45.6219 44.1594
lfingers 7.12502
lthumb -18.382 73.3109
rfemur -102.932 5.77396 19.3721
rtibia 77.4798
rfoot -15.1203 -16.9975
rtoes -16.8141
lfemur -102.943 -4.03022 -8.4572
ltibia 83.0404
lfoot -22.2472 18.3104
ltoes -0.996765
225
root 23.7366 13.2044 1.88802 -144.186 -80.1942 190.766
lowerback 24.4121 2.25638 0.711216
upperback -0.427611 3.23135 1.09835
thorax -14.2721 1.4105 -0.300474
lowerneck 0.455624 5.68312 -4.04477
upperneck -45.8273 2.29048 -6.96267
head -16.8229 1.05873 -2.30875
rclavicle -1.19271e-014 3.37934e-014
rhumerus 33.0707 -12.7804 -24.4395
rradius 103.153
rwrist 5.44135
rhand -53.5502 36.2259
rfingers 7.12502
rthumb -25.9926 7.98355
lclavicle -1.19271e-014 3.37934e-014
lhumerus 15.0669 14.9749 25.5747
lradius 97.2555
lwrist 0.655338
lhand -44.8361 44.4489
lfingers 7.12502
lthumb -17.6259 73.67
rfemur -102.531 5.16482 18.9032
rtibia 76.8309
rfoot -17.9175 -14.3705
rtoes -4.99019
lfemur -102.505 -4.70352 -8.0061
ltibia 81.6376
lfoot -21.3823 18.2017
ltoes 0.823517
226
root 23.8631 13.2328 1.90723 -140.866 -80.9044 188.108
lowerback 24.6546 1.9881 0.851408
upperback -0.27339 2.92011 1.16286
thorax -14.2235 1.26078 -0.199553
lowerneck -0.533841 5.47776 -3.07496
upperneck -45.4517 1.80411 -7.78143
head -16.327 0.745388 -2.73236
rclavicle -5.56597e-015 -3.29983e-014
rhumerus 33.0355 -13.0779 -23.3401
rradius 103.51
rwrist 5.52365
rhand -53.6404 36.5954
rfingers 7.12502
rthumb -26.0791 8.36579
lclavicle -5.56597e-015 -3.29983e-014
lhumerus 16.7709 15.3976 25.7023
lradius 96.9716
lwrist 1.0246
lhand -45.0553 44.8202
lfingers 7.12502
lthumb -17.8369 74.0221
rfemur -103.295 4.30446 18.8274
rtibia 75.6471
rfoot -17.3726 -14.4233
rtoes -6.52689
lfemur -103.476 -5.49638 -7.25372
ltibia 80.3691
lfoot -20.0884 18.0443
ltoes 2.97415
227
root 23.9724 13.2712 1.90263 -142.291 -80.7631 189.91
lowerback 25.0524 2.22207 0.51892
upperback -0.0210793 3.12678 1.2525
thorax -14.1728 1.37456 0.0113191
lowerneck -1.39495 5.33412 -2.24738
upperneck -45.2046 1.44709 -8.40872
head -15.9592 0.48615 -3.07259
rclavicle 6.59965e-014 5.12864e-014
rhumerus 32.5612 -13.2687 -22.4478
rradius 104.142
rwrist 5.59862
rhand -53.6611 36.9159
rfingers 7.12502
rthumb -26.0989 8.6892
lclavicle 6.59965e-014 5.12864e-014
lhumerus 18.3167 15.7491 26.074
lradius 96.7763
lwrist 1.61015
lhand -46.3393 46.207
lfingers 7.12502
lthumb -19.072 75.2919
rfemur -103.368 4.65323 19.4962
rtibia 74.1076
rfoot -15.2732 -15.8112
rtoes -15.8412
lfemur -103.749 -5.26222 -6.38231
ltibia 79.3142
lfoot -19.2458 18.2358
ltoes 2.61767
228
root 24.082 13.3232 1.90064 -143.546 -80.5856 191.713
lowerback 25.1937 2.45454 0.226729
upperback 0.156711 3.3364 1.27636
thorax -14.0618 1.48656 0.128659
lowerneck -1.64224 5.31313 -2.21198
upperneck -45.441 1.40846 -8.35158
head -16.0398 0.427274 -3.05038
rclavicle -6.75868e-014 -1.39149e-014
rhumerus 31.9813 -13.4341 -21.7395
rradius 104.658
rwrist 5.66874
rhand -53.6999 37.1782
rfingers 7.12502
rthumb -26.1361 8.95702
lclavicle -6.75868e-014 -1.39149e-014
lhumerus 19.5008 15.8721 26.5218
lradius 96.8946
lwrist 2.05887
lhand -47.2481 47.0528
lfingers 7.12502
lthumb -19.9458 76.0491
rfemur -103.642 4.96065 19.7706
rtibia 72.6344
rfoot -15.24 -15.6668
rtoes -16.4877
lfemur -104.11 -4.95522 -5.57352
ltibia 78.2925
lfoot -18.6136 18.5568
ltoes 2.13363
229
root 24.1848 13.3836 1.904 -144.747 -80.2817 193.252
lowerback 25.4951 2.70785 -0.103039
upperback 0.353689 3.55612 1.28162
thorax -14.0208 1.60167 0.236774
lowerneck -1.7065 5.32254 -2.2645
upperneck -45.804 1.39676 -8.27351
head -16.2402 0.393277 -3.01878
rclavicle -9.54166e-015 -2.82274e-014
rhumerus 31.4296 -13.448 -21.242
rradius 104.99
rwrist 5.89389
rhand -53.416 36.8623
rfingers 7.12502
rthumb -25.8642 8.60114
lclavicle -9.54166e-015 -2.82274e-014
lhumerus 20.2515 15.8921 26.9537
lradius 97.3569
lwrist 2.53721
lhand -47.3658 47.5164
lfingers 7.12502
lthumb -20.0589 76.5009
rfemur -103.553 5.29718 20.0009
rtibia 70.9638
rfoot -14.9444 -15.8157
rtoes -17.9361
lfemur -104.17 -4.6732 -4.8646
ltibia 77.3317
lfoot -18.5155 18.9082
ltoes 2.59607
230
root 24.2992 13.4507 1.90214 -146.04 -79.9994 195.055
lowerback 25.6036 2.97803 -0.472128
upperback 0.43173 3.8029 1.34803
thorax -14.0232 1.73744 0.430713
lowerneck -2.2046 5.26984 -1.99844
upperneck -45.6674 1.24384 -8.54938
head -16.0419 0.292901 -3.1478
rclavicle 7.87187e-014 6.55989e-014
rhumerus 30.6546 -12.9632 -20.8139
rradius 105.51
rwrist 6.57311
rhand -53.6361 34.539
rfingers 7.12502
rthumb -26.075 6.30874
lclavicle 7.87187e-014 6.55989e-014
lhumerus 20.6874 15.7679 27.4017
lradius 97.7558
lwrist 2.69778
lhand -46.8357 47.1021
lfingers 7.12502
lthumb -19.5493 76.1392
rfemur -103.636 5.70078 20.2745
rtibia 69.3202
rfoot -14.5055 -16.6395
rtoes -20.3495
lfemur -104.374 -4.21812 -4.13518
ltibia 76.3606
lfoot -18.7576 19.0519
ltoes 2.6971
231
root 24.3998 13.5376 1.90447 -146.95 -79.7839 196.175
lowerback 25.9444 3.18899 -0.723999
upperback 0.500339 4.00209 1.40579
thorax -14.1589 1.84031 0.554879
lowerneck -2.398 5.29599 -2.34367
upperneck -45.6619 1.27434 -8.50453
head -16.009 0.354898 -3.0633
rclavicle 6.04305e-014 1.11319e-014
rhumerus 29.624 -12.1284 -20.3739
rradius 106.205
rwrist 7.51714
rhand -54.5743 32.0379
rfingers 7.12502
rthumb -26.9729 3.94335
lclavicle 6.04305e-014 1.11319e-014
lhumerus 20.8541 15.4189 27.9337
lradius 98.0046
lwrist 2.2503
lhand -46.6236 46.1723
lfingers 7.12502
lthumb -19.3454 75.2301
rfemur -103.264 5.95143 20.4913
rtibia 67.6396
rfoot -14.4556 -15.2147
rtoes -17.2142
lfemur -104.186 -3.98393 -3.59058
ltibia 75.3202
lfoot -19.0099 19.1712
ltoes 4.48859
232
root 24.4991 13.6213 1.90044 -148.385 -79.207 197.981
lowerback 26.1324 3.57488 -1.2758
upperback 0.513423 4.34592 1.47145
thorax -14.3066 2.03151 0.807967
lowerneck -1.62163 5.50564 -3.34226
upperneck -46.5385 1.5505 -8.0821
head -16.7443 0.590634 -2.79941
rclavicle -8.5875e-014 -4.37326e-014
rhumerus 28.8802 -11.5333 -20.1306
rradius 106.57
rwrist 8.02306
rhand -54.6015 33.4545
rfingers 7.12502
rthumb -26.9989 5.36398
lclavicle -8.5875e-014 -4.37326e-014
lhumerus 20.777 15.0726 28.5004
lradius 98.3421
lwrist 1.63529
lhand -46.8715 45.404
lfingers 7.12502
lthumb -19.5837 74.4377
rfemur -102.986 6.57201 20.6664
rtibia 65.881
rfoot -14.4839 -14.6287
rtoes -15.8444
lfemur -104.075 -3.32345 -3.09929
ltibia 74.2368
lfoot -19.2872 19.4416
ltoes 7.06802
233
root 24.5954 13.7048 1.8974 -148.979 -78.9416 198.91
lowerback 26.2853 3.76772 -1.62993
upperback 0.54786 4.49169 1.51596
thorax -14.3891 2.12029 0.999872
lowerneck -2.13644 5.41004 -2.92095
upperneck -46.2459 1.28909 -8.54121
head -16.4394 0.444115 -3.01878
rclavicle -1.43125e-014 1.27222e-014
rhumerus 28.4332 -11.1528 -20.1662
rradius 106.716
rwrist 8.18335
rhand -53.84 36.2509
rfingers 7.12502
rthumb -26.2701 8.04956
lclavicle -1.43125e-014 1.27222e-014
lhumerus 20.4737 14.8289 28.922
lradius 98.8528
lwrist 1.27277
lhand -46.7743 44.7002
lfingers 7.12502
lthumb -19.4903 73.7433
rfemur -102.672 6.91221 20.741
rtibia 64.1074
rfoot -14.5982 -15.7327
rtoes -19.8686
lfemur -103.888 -2.99017 -2.52123
ltibia 72.9715
lfoot -19.2723 19.9784
ltoes 7.15915
